<svg width="71" height="40" viewBox="0 0 71 40" fill="none" xmlns="http://www.w3.org/2000/svg">
<path fill-rule="evenodd" clip-rule="evenodd" d="M57.8445 16.1801C57.5252 16.4772 57.2683 16.8388 57.0897 17.2426C56.8998 17.6568 56.8076 18.1408 56.8076 18.6918C56.8076 19.9909 57.2798 21.0022 58.2242 21.7256C59.1686 22.4491 60.5943 22.8124 62.5013 22.8157C63.7385 22.8157 64.8145 22.6915 65.7293 22.4432C66.644 22.1948 67.4004 21.8421 67.9982 21.3849C68.5703 20.9569 69.0264 20.3843 69.3226 19.7219C69.6204 19.0314 69.7686 18.2821 69.757 17.5262C69.7619 16.9517 69.6777 16.38 69.5077 15.8329C69.3549 15.3268 69.0851 14.8667 68.7216 14.4924C68.325 14.1018 67.8503 13.8058 67.3309 13.6253C66.7579 13.4136 66.0626 13.3078 65.2436 13.3078H62.14C61.9149 13.3086 61.6899 13.2978 61.4658 13.2753C61.2781 13.2571 61.0948 13.2052 60.9242 13.1222C60.7789 13.0503 60.6559 12.9379 60.569 12.7977C60.4775 12.6287 60.4337 12.4365 60.4427 12.2431C60.4401 12.0449 60.4761 11.8481 60.5485 11.6646C60.6181 11.4928 60.7156 11.3346 60.8368 11.1968C60.9601 11.0534 61.1014 10.9277 61.2568 10.8228C61.388 10.7344 61.5246 10.6514 61.6666 10.5738C61.7321 10.5385 61.8065 10.5248 61.8797 10.5343L62.045 10.5547C62.1605 10.5674 62.2882 10.578 62.42 10.5822L62.4529 10.5833C62.5744 10.5872 62.6989 10.5912 62.8216 10.5964C62.9423 10.6014 63.053 10.6014 63.1512 10.6013L63.1829 10.6013C64.0128 10.6013 64.7348 10.4799 65.3543 10.2372C65.9331 10.0196 66.4583 9.6727 66.8924 9.22125C67.3026 8.78324 67.6154 8.25811 67.8091 7.68245C68.0202 7.05913 68.1245 6.40253 68.1171 5.7422C68.1171 4.9327 68.0165 4.25914 67.8152 3.72151C67.6613 3.29598 67.4546 2.89282 67.2005 2.52208C67.1628 2.46676 67.1508 2.39703 67.1677 2.33167C67.1845 2.26631 67.2286 2.21203 67.2879 2.18342C67.3884 2.13307 67.4928 2.09153 67.6 2.05925C67.8028 2.00131 68.0126 1.97329 68.223 1.97599C68.3785 1.96908 68.5335 1.99951 68.6758 2.06489C68.7846 2.1178 68.8786 2.1984 68.949 2.29913C69.0143 2.39272 69.0622 2.49797 69.0904 2.60957C69.0993 2.6512 69.1068 2.69212 69.1129 2.73375C69.1298 2.85308 69.2336 2.93831 69.3499 2.92848C69.4969 2.91604 69.6412 2.88109 69.7782 2.82476C69.9482 2.75418 70.1009 2.64522 70.2249 2.50586C70.3421 2.37029 70.4308 2.21098 70.4851 2.03808C70.5447 1.85244 70.5742 1.65792 70.5725 1.46235C70.5745 1.27119 70.5407 1.08144 70.4728 0.903561C70.4069 0.727341 70.3051 0.567811 70.1744 0.435784C70.0299 0.295156 69.8587 0.187043 69.6716 0.118288C69.4425 0.0351015 69.2007 -0.00480991 68.9579 0.000461662C68.6683 -0.00187787 68.3806 0.0490083 68.1082 0.150743C67.8529 0.249079 67.6091 0.376887 67.3815 0.531738C67.1649 0.675399 66.9627 0.840832 66.7777 1.02562C66.6561 1.14627 66.5468 1.25986 66.4478 1.36569C66.373 1.447 66.2522 1.46043 66.1623 1.39744C66.0417 1.31233 65.9149 1.23685 65.7832 1.17167C65.546 1.05358 65.3003 0.954738 65.0483 0.876045C64.7579 0.782364 64.4611 0.711605 64.1604 0.664381C63.8372 0.615412 63.5109 0.591826 63.1843 0.593826C62.3203 0.593826 61.569 0.709536 60.9263 0.950833C60.3223 1.16617 59.7736 1.52059 59.3218 1.98728C58.8848 2.45244 58.5553 3.01372 58.3581 3.62909C58.1445 4.27302 58.0382 5.00537 58.0391 5.82616C58.0382 6.28703 58.0947 6.74611 58.2071 7.1921C58.3117 7.61988 58.4725 8.03081 58.6853 8.4134C58.8946 8.78294 59.1564 9.11803 59.4618 9.40751C59.6607 9.59462 59.8795 9.75772 60.1141 9.89363C60.1912 9.9383 60.2405 10.0209 60.2444 10.1121C60.2483 10.2034 60.2062 10.2902 60.1333 10.3417C59.6998 10.6493 59.3717 10.9637 59.149 11.285C58.8608 11.6949 58.7215 12.181 58.7215 12.7419C58.7193 13.0247 58.7655 13.3055 58.8581 13.5716C58.9397 13.8096 59.0567 14.0329 59.205 14.2334C59.3415 14.4212 59.5024 14.5886 59.6832 14.7309C59.7709 14.798 59.8621 14.8602 59.9564 14.9171C59.9981 14.9388 60.0219 14.9855 60.0156 15.0333C60.0093 15.0811 59.9742 15.1195 59.9284 15.1288C59.5864 15.2083 59.2522 15.3198 58.9298 15.4618C58.5324 15.6382 58.1657 15.8808 57.8445 16.1801ZM61.1837 2.90661C61.5635 2.28573 62.1926 1.97529 63.0764 1.97529C63.9602 1.97529 64.5989 2.27867 64.9752 2.88615C65.3515 3.49362 65.5373 4.432 65.5373 5.70128C65.5437 6.23613 65.5 6.77036 65.4069 7.29652C65.3436 7.68934 65.2012 8.06407 64.9889 8.39647C64.7977 8.67692 64.5347 8.8968 64.2293 9.03146C63.9243 9.1688 63.5486 9.23771 63.1024 9.23818C62.2213 9.23818 61.5847 8.95596 61.1988 8.39647C60.8129 7.83697 60.6155 6.9508 60.6155 5.74432C60.6155 4.47245 60.8049 3.52655 61.1837 2.90661ZM59.9543 16.3303C59.6649 16.5365 59.4329 16.8175 59.2815 17.1452C59.1087 17.498 59.0247 17.9524 59.0254 18.5133C59.0235 18.9059 59.078 19.2965 59.1873 19.6725C59.2931 20.0263 59.4869 20.3453 59.7494 20.5975C60.0153 20.8567 60.3753 21.0594 60.8293 21.2057C61.2832 21.3519 61.8581 21.4251 62.5539 21.4251C63.5347 21.4251 64.3441 21.3425 64.9807 21.1725C65.6172 21.0025 66.1261 20.7647 66.4983 20.4613C66.8541 20.1836 67.127 19.808 67.2859 19.3776C67.4405 18.9376 67.5175 18.4726 67.5133 18.0046C67.5133 17.5686 67.4511 17.2158 67.3309 16.9336C67.2199 16.6635 67.0353 16.4326 66.7995 16.269C66.5319 16.0966 66.2334 15.9817 65.9219 15.931C65.5238 15.8622 65.1206 15.83 64.717 15.835H62.0334C61.6587 15.8336 61.2847 15.8676 60.916 15.9366C60.5729 15.9993 60.2458 16.1332 59.9543 16.3303ZM2.99768 2.39437C3.20978 2.53897 3.3781 2.74243 3.48331 2.98138C3.60579 3.23209 3.66681 3.56464 3.66635 3.97903V12.7708C3.66635 13.2106 3.60534 13.5634 3.48331 13.8292C3.38295 14.0759 3.21723 14.2884 3.00519 14.4423C2.79474 14.5903 2.55437 14.6869 2.30236 14.7245C2.08106 14.7626 1.48615 14.7845 1.10298 14.7908C1.04139 14.791 0.982429 14.8166 0.939203 14.8619C0.895977 14.9072 0.87207 14.9685 0.872799 15.0321V15.7377C0.872799 15.8011 0.897194 15.8619 0.940617 15.9068C0.98404 15.9516 1.04293 15.9768 1.10434 15.9768H8.9864C9.11428 15.9768 9.21795 15.8698 9.21795 15.7377V15.0321C9.21795 14.9 9.11428 14.7929 8.9864 14.7929H8.46048C8.17229 14.7942 7.88442 14.7734 7.59919 14.7308C7.34769 14.6939 7.10539 14.6074 6.88543 14.4761C6.67468 14.3389 6.50768 14.1407 6.40527 13.9061C6.28232 13.657 6.22222 13.3233 6.22222 12.9098V8.479C6.22222 8.12058 6.23929 7.72265 6.27823 7.27957C6.31462 6.83469 6.37413 6.39214 6.45649 5.95385C6.54154 5.51296 6.65309 5.07797 6.79049 4.65141C6.91361 4.25671 7.08386 3.8794 7.29729 3.52818C7.47916 3.22312 7.7156 2.95661 7.99397 2.74291C8.2589 2.54823 8.5766 2.44501 8.90171 2.44799C9.43378 2.44799 9.80808 2.62014 10.0219 2.96163C10.2127 3.2716 10.3176 3.7556 10.3367 4.41364C10.3416 4.54482 10.4481 4.64731 10.5751 4.64295C10.8922 4.63663 11.2073 4.58922 11.5129 4.50184C11.7994 4.42452 12.0667 4.28501 12.297 4.09262C12.4963 3.92366 12.6507 3.70515 12.7458 3.45763C12.8424 3.19868 12.8904 2.92306 12.8871 2.64554C12.8871 1.99362 12.6453 1.48704 12.1611 1.13144C11.6768 0.775846 10.9364 0.593109 9.94127 0.593109C9.33474 0.593109 8.83477 0.672836 8.43452 0.8337C8.0595 0.979062 7.71749 1.20266 7.4298 1.49056C7.15473 1.77878 6.92435 2.10909 6.74678 2.46986C6.65047 2.66036 6.47357 2.96939 6.32604 3.2248C6.29605 3.28229 6.23177 3.31102 6.17067 3.29423C6.10957 3.27744 6.0676 3.21953 6.06922 3.15424V2.06206C6.06696 1.40128 5.54777 0.866857 4.90809 0.866861H1.10434C0.976465 0.866861 0.872799 0.973946 0.872799 1.10604C0.873371 1.62762 1.27066 2.05666 1.77507 2.0804C1.99432 2.09098 2.19308 2.10368 2.28734 2.11921C2.54027 2.15808 2.78236 2.25186 2.99768 2.39437ZM31.2366 8.42184C32.2666 7.69842 33.825 7.30426 35.9119 7.23935L37.9657 7.16456C38.0843 7.16037 38.1782 7.05987 38.1782 6.93737V5.4656C38.1815 4.99837 38.1545 4.53144 38.0976 4.06792C38.0577 3.67899 37.9398 3.30292 37.7513 2.96374C37.5705 2.65329 37.3048 2.40509 36.9877 2.25043C36.6543 2.08251 36.2056 1.99714 35.6455 1.99714C35.1257 1.99714 34.6968 2.07334 34.3744 2.22291C34.0681 2.35834 33.805 2.58042 33.6156 2.86355C33.4258 3.15729 33.3004 3.49031 33.2481 3.83932C33.1969 4.16493 33.1672 4.49377 33.1593 4.82356C33.1568 4.88907 33.1292 4.95087 33.0826 4.99534C33.036 5.03981 32.9741 5.06329 32.9107 5.06062C32.2734 5.03381 31.781 4.90187 31.4292 4.66481C31.0338 4.40093 30.8377 3.94162 30.8377 3.28829C30.8377 2.80146 30.9641 2.39154 31.223 2.05146C31.507 1.6902 31.8711 1.40488 32.2844 1.21962C32.783 0.988291 33.3096 0.827619 33.8499 0.74197C34.4795 0.639971 35.1161 0.590423 35.7534 0.593805C36.5874 0.593805 37.3189 0.677765 37.9391 0.847096C38.5593 1.01643 39.0811 1.293 39.4984 1.68035C39.9311 2.09021 40.2539 2.60861 40.4355 3.18528C40.6464 3.80475 40.7518 4.56486 40.7518 5.4656V12.7708C40.7465 13.0996 40.7777 13.428 40.8447 13.7494C40.8945 13.9772 40.9956 14.1897 41.1397 14.3696C41.2797 14.5299 41.4621 14.6442 41.6643 14.6984C41.8811 14.7441 42.101 14.7724 42.322 14.783C42.4372 14.7908 42.5268 14.8896 42.527 15.0088V15.7511C42.527 15.8761 42.4288 15.9775 42.3077 15.9775H39.4459C38.8178 15.9775 38.3086 15.4516 38.3086 14.8028V13.5617C38.3086 13.5617 37.6256 14.3124 37.3524 14.6434C37.0954 14.9648 36.8003 15.2516 36.474 15.4971C36.143 15.7411 35.7764 15.929 35.388 16.0537C34.9855 16.1873 34.4987 16.2541 33.9277 16.2541C33.3561 16.2589 32.7875 16.1678 32.2441 15.9846C31.742 15.8158 31.2825 15.5341 30.8985 15.1598C30.5054 14.7653 30.2021 14.2855 30.0106 13.7551C29.7982 13.1927 29.6896 12.5239 29.6896 11.7534C29.6909 10.2558 30.2066 9.14526 31.2366 8.42184ZM37.9246 12.2184C38.0989 11.6966 38.1844 11.1476 38.1774 10.5957L38.1726 8.56862C38.1726 8.50187 38.1463 8.43801 38.0995 8.39189C38.0528 8.34577 37.9899 8.32142 37.9253 8.3245L36.4288 8.39506C35.6543 8.43104 35.0075 8.5277 34.489 8.68998C33.9706 8.85225 33.5506 9.0745 33.2323 9.36448C32.9138 9.64914 32.6763 10.0179 32.5452 10.4313C32.4 10.9028 32.3308 11.3957 32.3403 11.8903C32.3403 12.7723 32.524 13.4298 32.8805 13.8659C33.2371 14.3019 33.7985 14.5192 34.5498 14.5192C35.0618 14.5268 35.5704 14.4334 36.0484 14.244C36.4833 14.0719 36.8763 13.8033 37.2 13.4574C37.5242 13.1024 37.7713 12.68 37.9246 12.2184ZM14.4752 2.10861C13.9831 2.04697 13.6127 1.61597 13.6118 1.10392C13.6118 0.972989 13.7146 0.866852 13.8413 0.866852H18.2694C18.3315 0.866852 18.3911 0.892348 18.435 0.937733C18.479 0.983117 18.5036 1.04467 18.5036 1.10885V10.5985C18.4961 11.1486 18.5418 11.6981 18.6402 12.2388C18.7173 12.6697 18.8753 13.0808 19.1054 13.4489C19.324 13.7798 19.6291 14.0399 19.9851 14.1989C20.356 14.3668 20.8177 14.4536 21.3641 14.4536C21.9693 14.4536 22.485 14.3421 22.9159 14.1227C23.3396 13.9074 23.706 13.5887 23.9835 13.1942C24.2809 12.7606 24.4921 12.2704 24.6051 11.752C24.744 11.1436 24.8112 10.5201 24.8052 9.89502V4.08767C24.8052 3.64741 24.7458 3.29181 24.6235 3.02018C24.5207 2.77338 24.3556 2.55967 24.1454 2.40142C23.9325 2.25468 23.6909 2.15831 23.4378 2.1192C23.4125 2.11426 23.379 2.11002 23.3442 2.10579C22.8542 2.04606 22.485 1.61708 22.485 1.10744C22.485 0.974568 22.5892 0.866852 22.7179 0.866852H27.1254C27.254 0.866852 27.3583 0.974568 27.3583 1.10744V12.9098C27.3583 13.3233 27.4191 13.6542 27.5414 13.9061C27.6441 14.1429 27.8133 14.3425 28.027 14.479C28.245 14.6132 28.4875 14.6995 28.7394 14.7322C28.9136 14.7598 29.2482 14.7781 29.4668 14.7873C29.5841 14.7926 29.6766 14.8924 29.6765 15.0138V15.7511C29.6765 15.8761 29.5783 15.9775 29.4572 15.9775H26.8754C25.8332 15.9775 24.9882 15.1048 24.9882 14.0281C24.9876 13.9796 24.9576 13.9367 24.9132 13.9209C24.8688 13.9051 24.8196 13.9198 24.7902 13.9576C24.5559 14.2673 24.1652 14.7661 23.9412 14.9862C23.3334 15.6054 22.553 16.0121 21.7097 16.149C21.2874 16.2196 20.8603 16.2548 20.4325 16.2541C19.7796 16.2653 19.1299 16.1576 18.5132 15.9359C17.9679 15.7361 17.4809 15.3962 17.098 14.9481C16.7159 14.4957 16.4257 13.9216 16.2271 13.2259C16.0286 12.5302 15.9293 11.7003 15.9293 10.736V3.97761C15.9298 3.56416 15.8688 3.23208 15.7463 2.98137C15.6403 2.74313 15.4721 2.5401 15.2607 2.39507C15.045 2.25324 14.8031 2.15952 14.5503 2.1199L14.4752 2.10861ZM54.0256 1.90611C54.421 2.3506 54.7222 2.9228 54.9333 3.62059C55.1387 4.31673 55.242 5.14692 55.2434 6.11117V12.7743C55.2434 13.2146 55.296 13.5674 55.3984 13.8327C55.4819 14.0749 55.631 14.2873 55.8281 14.4444C56.0261 14.5919 56.2553 14.6886 56.4967 14.7266C56.6613 14.7555 57.0001 14.776 57.2207 14.7866C57.3378 14.7922 57.4299 14.892 57.4297 15.013V15.7532C57.4297 15.8782 57.3316 15.9796 57.2105 15.9796H52.8931C52.772 15.9796 52.6739 15.8782 52.6739 15.7532V6.24945C52.6792 5.69887 52.6252 5.14938 52.5127 4.61117C52.4256 4.17567 52.2519 3.76362 52.0025 3.40116C51.7633 3.06952 51.4429 2.80967 51.0742 2.64834C50.6931 2.47948 50.2271 2.39505 49.6761 2.39505C49.0539 2.39505 48.5307 2.51994 48.112 2.76758C47.6943 3.00869 47.3419 3.35442 47.0874 3.77299C46.8199 4.22043 46.6331 4.71431 46.5362 5.23064C46.4227 5.80073 46.3666 6.38144 46.3689 6.96347V12.9098C46.3689 13.3233 46.4276 13.657 46.5472 13.906C46.6518 14.1417 46.8212 14.3404 47.0342 14.4775C47.2527 14.6122 47.4956 14.6993 47.7479 14.7336C47.9207 14.7598 48.2575 14.7774 48.4774 14.7873C48.5947 14.7926 48.6872 14.8924 48.6871 15.0138V15.7334C48.6871 15.8686 48.581 15.9782 48.4501 15.9782H44.0398C43.9119 15.9782 43.8083 15.8711 43.8083 15.7391V3.97689C43.8087 3.56438 43.7493 3.2316 43.63 2.97854C43.5226 2.74298 43.3555 2.54184 43.1464 2.39646C42.9305 2.25482 42.6887 2.16067 42.4361 2.11989L42.3616 2.10931C41.868 2.0506 41.4951 1.61933 41.4942 1.10602C41.4942 0.974704 41.5972 0.868251 41.7244 0.868251H45.037C45.716 0.868251 46.2664 1.43684 46.2664 2.13823V2.71537C46.2664 2.7795 46.3056 2.83666 46.3641 2.85793C46.4227 2.87921 46.4879 2.85996 46.5267 2.80991C46.7637 2.49877 47.1045 2.06839 47.2964 1.86378C47.5867 1.5484 47.9246 1.28389 48.2971 1.08062C48.6473 0.891581 49.0245 0.761534 49.4145 0.695392C49.8262 0.624799 50.243 0.590574 50.6603 0.593088C51.3161 0.582764 51.9685 0.692649 52.5871 0.917639C53.1361 1.12382 53.6293 1.46276 54.0256 1.90611ZM13.5374 33.0447C13.3825 32.5409 13.1121 32.0832 12.7492 31.7105C12.3548 31.3149 11.88 31.015 11.3592 30.8328C10.7882 30.623 10.0952 30.5174 9.28013 30.516H6.18741C5.96299 30.5166 5.73867 30.5055 5.51532 30.4829C5.32806 30.4651 5.14523 30.4138 4.97505 30.3312C4.83076 30.2585 4.70842 30.1465 4.62125 30.0073C4.52971 29.8395 4.48525 29.6487 4.49284 29.4563C4.49121 29.2586 4.52718 29.0625 4.59871 28.8791C4.66936 28.7087 4.76624 28.5512 4.88557 28.4128C5.00945 28.2701 5.1509 28.1449 5.30631 28.0403C5.46989 27.9299 5.63931 27.8291 5.8138 27.7383C5.85193 27.7438 5.89879 27.7493 5.95294 27.7557C5.9958 27.7607 6.04323 27.7663 6.09452 27.7729C6.21063 27.7877 6.33221 27.7968 6.4654 27.8004C6.59859 27.8039 6.73041 27.8088 6.86429 27.8152C6.9861 27.821 7.09829 27.8209 7.19573 27.8208H7.19578H7.19582H7.19586H7.19591L7.22424 27.8208C8.05115 27.8208 8.77265 27.6995 9.38873 27.4568C9.96583 27.2405 10.4893 26.8947 10.9214 26.4443C11.3294 26.0074 11.6403 25.484 11.8326 24.9104C12.0442 24.2887 12.1491 23.6335 12.1427 22.9744C12.1427 22.168 12.0518 21.4928 11.8415 20.9594C11.6193 20.3585 11.2932 19.8043 10.8791 19.3239C10.8067 19.2393 10.7377 19.1631 10.6742 19.0939C10.6019 19.0183 10.5902 18.9009 10.6462 18.8117C10.7166 18.6974 10.7978 18.5906 10.8886 18.4928C11.0376 18.3377 11.2071 18.2051 11.392 18.0991C11.5233 18.0137 11.6716 17.9601 11.8258 17.9425C11.9451 17.9334 12.0648 17.9542 12.1748 18.0032C12.2767 18.0508 12.3692 18.1173 12.448 18.1993C12.4753 18.2294 12.5013 18.2602 12.5258 18.2917C12.5962 18.3891 12.7281 18.4124 12.8257 18.3446C12.9471 18.258 13.0553 18.1531 13.1467 18.0335C13.2596 17.8849 13.3387 17.712 13.3783 17.5276C13.4152 17.3502 13.4152 17.1667 13.3783 16.9893C13.3394 16.7984 13.2701 16.6156 13.1733 16.4481C13.0821 16.2828 12.9619 16.1364 12.8189 16.0163C12.6761 15.8981 12.5102 15.8134 12.3326 15.768C12.1399 15.7208 11.9399 15.7156 11.7452 15.7525C11.5073 15.7982 11.2794 15.8878 11.0724 16.017C10.8215 16.1635 10.5977 16.3546 10.4112 16.5815C10.2382 16.7988 10.0893 17.0355 9.96725 17.287C9.85045 17.5229 9.75708 17.7704 9.68858 18.0257L9.67355 18.0808C9.6573 18.1414 9.61712 18.1923 9.56283 18.2208C9.50854 18.2494 9.44512 18.2531 9.38805 18.231C9.29151 18.1939 9.19111 18.1584 9.08683 18.1245C8.79631 18.0325 8.4995 17.9631 8.19891 17.9171C7.87648 17.8675 7.55089 17.8432 7.22492 17.8444C6.36363 17.8444 5.61094 17.9608 4.97095 18.2007C4.36885 18.415 3.82183 18.768 3.37132 19.2329C2.93721 19.6974 2.61033 20.2572 2.41509 20.8705C2.20107 21.5125 2.09452 22.2416 2.09543 23.0577C2.09512 23.5174 2.15205 23.9753 2.26482 24.4201C2.36832 24.8467 2.52926 25.2561 2.74294 25.6365C2.94888 26.0046 3.20852 26.3378 3.5127 26.6242C3.8199 26.916 4.17491 27.1489 4.56114 27.3121C3.93754 27.6967 3.48606 28.0953 3.20329 28.5024C2.76504 29.1722 2.65583 30.0154 2.90823 30.7806C2.99018 31.0176 3.10673 31.2403 3.25384 31.441C3.39012 31.6278 3.55106 31.7941 3.73195 31.9349C3.90091 32.0669 4.08431 32.178 4.27837 32.2658C3.83548 32.3481 3.40324 32.4828 2.99019 32.6672C2.59282 32.8432 2.22598 33.0851 1.90419 33.3834C1.58727 33.6802 1.33171 34.0402 1.15287 34.4417C0.958972 34.8966 0.863408 35.3897 0.872827 35.8866C0.872827 37.1811 1.34297 38.19 2.28326 38.9134C3.22356 39.6368 4.64538 39.999 6.54873 40C7.77817 40 8.85598 39.8758 9.76508 39.6296C10.6742 39.3833 11.4282 39.0305 12.0245 38.5762C12.597 38.151 13.0531 37.5797 13.3482 36.9181C13.6453 36.2304 13.7936 35.484 13.7826 34.7309C13.7881 34.159 13.7053 33.5898 13.5374 33.0447ZM5.2346 20.148C5.61299 19.5293 6.24001 19.221 7.12315 19.221C8.0063 19.221 8.63878 19.5222 9.01307 20.1283C9.38737 20.7344 9.57315 21.6692 9.57315 22.9357C9.57989 23.4684 9.53782 24.0007 9.44747 24.5253C9.38113 24.9159 9.23793 25.2883 9.02673 25.6196C8.83824 25.8992 8.57808 26.1191 8.27541 26.2545C7.9676 26.3905 7.59171 26.4584 7.14774 26.4584C6.26801 26.4584 5.63485 26.1788 5.24826 25.6196C4.86372 25.0551 4.66769 24.1781 4.66769 22.9752C4.66815 21.7094 4.85712 20.767 5.2346 20.148ZM10.5335 37.6498C10.8864 37.3707 11.1576 36.9961 11.3169 36.5675C11.4708 36.1289 11.5474 35.6653 11.543 35.1988C11.543 34.767 11.4836 34.4142 11.3613 34.132C11.2505 33.8623 11.0655 33.6322 10.8292 33.4702C10.5636 33.2981 10.2668 33.1836 9.957 33.1336C9.56217 33.0644 9.16219 33.0313 8.76172 33.0348H6.08086C5.7073 33.0335 5.3344 33.0675 4.96685 33.1364C4.62555 33.1981 4.3001 33.3313 4.01062 33.528C3.72089 33.7337 3.48863 34.0145 3.33717 34.3422C3.16983 34.6894 3.08581 35.1451 3.08581 35.7039C3.083 36.095 3.13569 36.4844 3.24223 36.8596C3.34734 37.2124 3.5405 37.5305 3.8023 37.7818C4.06936 38.0351 4.42454 38.2397 4.88079 38.3878C5.33705 38.536 5.90806 38.6065 6.59996 38.6065C7.57736 38.6065 8.38264 38.5233 9.02058 38.3554C9.65351 38.187 10.1578 37.9518 10.5335 37.6498ZM14.4752 19.3592C13.9831 19.2976 13.6127 18.8666 13.6118 18.3545C13.6118 18.2236 13.7146 18.1174 13.8413 18.1174H18.2714C18.4008 18.1174 18.5057 18.2258 18.5057 18.3594V27.8476C18.4981 28.3978 18.5439 28.9473 18.6423 29.488C18.7194 29.9189 18.8774 30.33 19.1074 30.698C19.326 31.029 19.6311 31.2891 19.9872 31.448C20.358 31.616 20.8198 31.7027 21.3662 31.7027C21.9713 31.7027 22.487 31.5913 22.918 31.3718C23.3417 31.1566 23.7081 30.8379 23.9856 30.4433C24.282 30.0102 24.4925 29.5208 24.6051 29.0033C24.744 28.3949 24.8112 27.7714 24.8052 27.1463V21.339C24.8052 20.8987 24.7458 20.5431 24.6235 20.2715C24.5207 20.0247 24.3556 19.811 24.1454 19.6527C23.9325 19.506 23.6909 19.4096 23.4378 19.3705C23.4125 19.3656 23.379 19.3613 23.3442 19.3571C22.854 19.2973 22.4847 18.8679 22.485 18.358C22.485 18.2942 22.5095 18.233 22.5532 18.1879C22.5969 18.1428 22.6561 18.1174 22.7179 18.1174H27.1254C27.1872 18.1174 27.2464 18.1428 27.2901 18.1879C27.3338 18.233 27.3583 18.2942 27.3583 18.358V30.1604C27.3583 30.5739 27.4191 30.9048 27.5414 31.1566C27.6441 31.3935 27.8133 31.5931 28.027 31.7296C28.245 31.8638 28.4875 31.9501 28.7394 31.9828C28.9136 32.0104 29.2482 32.0287 29.4668 32.0379C29.5841 32.0432 29.6766 32.143 29.6765 32.2644V33.0052C29.6765 33.1303 29.5783 33.2317 29.4572 33.2317H26.8761C26.3749 33.2318 25.8942 33.0261 25.54 32.6597C25.1858 32.2933 24.9873 31.7965 24.9882 31.2787C24.9876 31.2302 24.9576 31.1873 24.9132 31.1715C24.8688 31.1557 24.8196 31.1704 24.7902 31.2082C24.5559 31.5179 24.1652 32.0167 23.9412 32.2368C23.3334 32.856 22.553 33.2627 21.7097 33.3996C21.2874 33.4702 20.8603 33.5054 20.4325 33.5047C19.7796 33.5159 19.1299 33.4082 18.5132 33.1865C17.9679 32.9867 17.4809 32.6468 17.098 32.1987C16.7159 31.7463 16.4257 31.1722 16.2271 30.4765C16.0286 29.7808 15.9293 28.9509 15.9293 27.9866V21.2282C15.9298 20.8148 15.8688 20.4827 15.7463 20.232C15.6403 19.9937 15.4721 19.7907 15.2607 19.6457C15.045 19.5038 14.8031 19.4101 14.5503 19.3705L14.4752 19.3592ZM39.9901 18.3792C39.5047 18.0208 38.765 17.8423 37.771 17.8437C37.1645 17.8437 36.6645 17.9234 36.2643 18.0843C35.8895 18.2295 35.5478 18.4529 35.2602 18.7405C34.9834 19.0285 34.7514 19.3591 34.5724 19.7205C34.4761 19.911 34.2992 20.22 34.1517 20.4754C34.1217 20.5329 34.0574 20.5616 33.9963 20.5448C33.9352 20.528 33.8932 20.4701 33.8949 20.4048V19.3127C33.893 18.653 33.3758 18.1187 32.7372 18.1168H28.9341C28.8071 18.1164 28.7037 18.222 28.7025 18.3531C28.7006 18.8766 29.0986 19.3086 29.6048 19.3324C29.8241 19.343 30.0228 19.3557 30.1171 19.3712C30.37 19.4101 30.6121 19.5039 30.8274 19.6464C31.0395 19.791 31.2078 19.9944 31.313 20.2334C31.4355 20.4841 31.4966 20.8167 31.4961 21.231V33.0024C31.4961 33.1275 31.5943 33.2289 31.7154 33.2289H36.8182C36.9461 33.2289 37.0497 33.1218 37.0497 32.9897V32.2841C37.0497 32.152 36.9461 32.0449 36.8182 32.0449H36.2923C36.0041 32.0462 35.7162 32.0254 35.431 31.9829C35.1795 31.9459 34.9372 31.8595 34.7172 31.7282C34.5051 31.5906 34.337 31.3913 34.2343 31.1553C34.1114 30.9062 34.0513 30.5725 34.0513 30.159V25.7282C34.0513 25.3698 34.0684 24.9718 34.1073 24.5288C34.1437 24.0839 34.2032 23.6413 34.2856 23.203C34.3706 22.7622 34.4821 22.3272 34.6196 21.9006C34.7432 21.5073 34.9137 21.1315 35.127 20.7816C35.3089 20.4765 35.5453 20.21 35.8237 19.9963C36.0886 19.8014 36.4063 19.6979 36.7315 19.7007C37.2635 19.7007 37.6378 19.8729 37.8516 20.2143C38.0419 20.5238 38.1469 21.0076 38.1665 21.6657C38.1717 21.7971 38.2783 21.8996 38.4055 21.8957C38.7224 21.8893 39.0372 21.8419 39.3426 21.7546C39.6292 21.6763 39.8963 21.5358 40.1261 21.3425C40.3258 21.1719 40.4801 20.9514 40.5741 20.7019C40.6704 20.4452 40.7189 20.1721 40.7169 19.8969C40.7169 19.2421 40.4744 18.7355 39.9901 18.3792ZM56.569 31.9843C56.7063 32.0061 56.942 32.0217 57.1428 32.0322L69.5642 32.0308C69.671 32.0308 69.7575 32.1202 69.7575 32.2305V33.032C69.7575 33.1423 69.671 33.2317 69.5642 33.2317H54.7058C54.2044 33.2319 53.7236 33.026 53.3694 32.6594C53.0153 32.2929 52.8168 31.7959 52.8179 31.278C52.8173 31.2295 52.7873 31.1866 52.7429 31.1708C52.6985 31.155 52.6493 31.1697 52.6198 31.2074C52.3855 31.5172 51.9949 32.016 51.7708 32.2361C51.1631 32.8554 50.3827 33.262 49.5394 33.3989C49.1171 33.4695 48.6899 33.5047 48.2621 33.504C47.6093 33.5152 46.9596 33.4075 46.3429 33.1858C45.7976 32.986 45.3105 32.6461 44.9276 32.198C44.5461 31.7465 44.256 31.1729 44.0575 30.4772C43.8589 29.7815 43.7597 28.9516 43.7597 27.9873V21.2289C43.7601 20.8155 43.6991 20.4834 43.5766 20.2327C43.4707 19.9942 43.3026 19.7909 43.091 19.6457C42.8754 19.5038 42.6334 19.4101 42.3807 19.3705L42.3055 19.3592C41.8134 19.2976 41.4431 18.8666 41.4422 18.3545C41.4422 18.2236 41.5449 18.1174 41.6717 18.1174H46.1011C46.2305 18.1174 46.3353 18.2258 46.3353 18.3594V27.8476C46.3278 28.3978 46.3736 28.9473 46.4719 29.488C46.549 29.9189 46.707 30.33 46.9371 30.698C47.1557 31.029 47.4608 31.2891 47.8168 31.448C48.1877 31.616 48.6494 31.7027 49.1958 31.7027C49.801 31.7027 50.316 31.5913 50.7477 31.3718C51.1713 31.1566 51.5378 30.8379 51.8152 30.4433C52.1116 30.0102 52.3222 29.5208 52.4347 29.0033C52.5737 28.3949 52.6409 27.7714 52.6348 27.1463V21.339C52.6348 20.8987 52.5754 20.5431 52.4532 20.2715C52.3504 20.0247 52.1852 19.811 51.975 19.6527C51.7622 19.506 51.5205 19.4096 51.2674 19.3705C51.2422 19.3656 51.2087 19.3613 51.1739 19.3571C50.6821 19.2972 50.3123 18.8653 50.3146 18.3538C50.3165 18.2224 50.4203 18.117 50.5475 18.1174H54.9544C55.0162 18.1174 55.0754 18.1428 55.1191 18.1879C55.1628 18.233 55.1873 18.2942 55.1873 18.358V30.1604C55.1873 30.5739 55.2481 30.9048 55.3703 31.1567C55.4731 31.3935 55.6423 31.5931 55.856 31.7296C56.0741 31.8644 56.3169 31.9511 56.569 31.9843Z" fill="white"/>
</svg>
