<svg width="74" height="40" viewBox="0 0 74 40" fill="none" xmlns="http://www.w3.org/2000/svg">
<path d="M58.6545 13.2343L61.5492 7.94159L64.4463 13.2343L61.5492 11.9274L58.6545 13.2343Z" fill="#30B4C0"/>
<path d="M25.1801 12.6306H20.795V13.8447H25.1801V12.6306Z" fill="#0F8092"/>
<path d="M2.00332 7.34728C0.594244 7.31014 0.03479 7.34728 0.03479 8.16209V14.6852H4.67755C5.01196 14.6566 5.33688 14.5594 5.63204 14.3996C5.9272 14.2399 6.18626 14.021 6.39306 13.7566C7.15215 12.8281 7.06858 11.925 6.1377 10.9036C7.14286 9.90545 6.60198 8.49172 5.79646 7.88584C5.10004 7.35889 4.32006 7.32639 3.51454 7.34728H2.00332ZM2.00332 10.1144V9.13939H3.80239H4.12739C4.52434 9.13939 4.73095 9.34599 4.73095 9.64313C4.73095 9.9983 4.47559 10.1074 4.12971 10.1074L2.00332 10.1144ZM2.00332 12.9V11.9042H4.30381C4.70077 11.9042 4.94916 12.0527 4.94916 12.4311C4.94916 12.7607 4.66363 12.9116 4.2922 12.8954L2.00332 12.9Z" fill="#0F8092"/>
<path d="M41.1187 14.6525H39.2059V8.23853C39.8559 8.91637 40.4502 9.53153 41.0352 10.1513C41.0914 10.2225 41.1203 10.3114 41.1164 10.4021C41.1187 11.2006 41.1187 13.8261 41.1187 14.6525Z" fill="#0F8092"/>
<path d="M40.3433 7.23111C40.9329 7.7952 41.5411 8.34537 42.1098 8.92804C42.8666 9.7057 43.5955 10.5089 44.4103 11.3794V7.38664H46.3672V7.7627C46.3672 9.76373 46.3672 11.7648 46.3672 13.7635C46.3672 14.1929 46.2419 14.5295 45.8008 14.7129C45.4178 14.8731 45.0046 14.7524 44.6401 14.374C42.8712 12.5308 41.1054 10.6845 39.3427 8.83518C39.027 8.50555 39.1385 7.72556 39.5308 7.44235C39.626 7.37039 39.7304 7.31003 39.8302 7.24271C39.8349 7.23111 40.1692 7.07093 40.3433 7.23111Z" fill="#30B4C0"/>
<path d="M29.7067 14.6435V12.8978H31.9469V9.13483H33.8922V12.8792H36.1625V14.6435H29.7067Z" fill="#0F8092"/>
<path d="M29.7067 14.6435V12.8978H31.9469V9.13483H33.8922V12.8792H36.1625V14.6435H29.7067Z" fill="#0F8092"/>
<path d="M23.9938 7.64893C24.8225 9.4155 26.4939 12.9324 27.3157 14.6711C26.6193 14.6711 25.9856 14.6711 25.3541 14.6711C25.2936 14.6599 25.2364 14.6353 25.1866 14.5992C25.1368 14.5631 25.0957 14.5162 25.0663 14.4622C24.6647 13.6404 23.3856 10.9987 23.0119 10.1653C22.9609 10.0395 22.9609 9.89879 23.0119 9.77299C23.3136 9.08586 23.6363 8.41498 23.9938 7.64893Z" fill="#0F8092"/>
<path d="M19.2093 14.6713C19.8616 13.2784 20.4884 11.9204 21.1175 10.5717C21.5307 9.68493 21.9439 8.79584 22.364 7.90907C22.4108 7.78666 22.482 7.67503 22.5732 7.58093C22.6644 7.48683 22.7738 7.41224 22.8947 7.36167C23.0156 7.31109 23.1455 7.2856 23.2765 7.28672C23.4076 7.28784 23.537 7.31556 23.6571 7.36819C23.8936 7.47888 24.0799 7.67453 24.1788 7.91624C24.2777 8.15795 24.2821 8.42803 24.191 8.67281C23.3019 10.5647 22.4082 12.4567 21.533 14.3532C21.5007 14.4609 21.4304 14.5532 21.3352 14.6129C21.24 14.6727 21.1263 14.6959 21.0153 14.6782C20.4373 14.655 19.857 14.6713 19.2093 14.6713Z" fill="#30B4C0"/>
<path d="M29.6835 7.37976H36.1579V9.12312C36.0255 9.12312 35.8909 9.13937 35.7539 9.13937C33.8783 9.13937 32.0003 9.13937 30.1246 9.13937C29.7671 9.13937 29.6603 9.04187 29.6766 8.72384C29.7044 8.2967 29.6835 7.86029 29.6835 7.37976Z" fill="#30B4C0"/>
<path d="M1.99636 7.34725C0.58728 7.31011 0.03479 7.34725 0.03479 8.17134V14.6851H1.99636V7.34725Z" fill="#30B4C0"/>
<path d="M1.99636 7.81827V7.354C0.58728 7.31685 0.03479 7.35399 0.03479 8.1688V12.2707L1.99636 7.81827Z" fill="url(#paint0_linear_1776_246)"/>
<path d="M15.4904 12.3147L15.7225 12.1963C17.2964 11.4419 17.7514 9.76121 16.7068 8.44963C15.9268 7.46769 15.0121 7.36787 13.5149 7.35626H12.1011V14.6849V12.2404H13.2618L13.2734 12.2567C13.8097 13.0158 14.3877 13.7493 14.9564 14.4852C15.0141 14.5732 15.1028 14.6362 15.2048 14.6616C15.885 14.6756 16.5652 14.6616 17.315 14.6616L15.4904 12.3147ZM14.3088 10.8058C13.9188 10.8058 13.5311 10.8058 13.1202 10.8058H12.1011V9.14605H14.3482C14.9123 9.1623 15.3186 9.51979 15.3186 9.97478C15.3186 10.4298 14.8984 10.8082 14.3088 10.8082V10.8058Z" fill="#0F8092"/>
<path d="M11.6232 7.35626H11.5884C10.4416 7.35626 10.177 7.60001 10.177 8.66088V14.6965H12.1014V7.35626H11.6232Z" fill="#30B4C0"/>
<path d="M46.2441 20.5743V22.2898H41.8149V20.5743H46.2441Z" fill="#0F8092"/>
<path d="M14.7293 22.3527C14.988 22.4327 15.2371 22.5409 15.4722 22.6754C15.5615 22.7212 15.6476 22.7732 15.7298 22.8309L17.1459 21.7375C17.1459 21.7375 16.1105 20.4422 13.9865 20.4422C12.972 20.4422 11.5722 20.8693 10.704 21.9302C12.6053 21.7956 13.9215 22.0718 14.7293 22.3527Z" fill="#30B4C0"/>
<path d="M5.87068 25.8902H1.9104V27.0068H5.87068V25.8902Z" fill="#0F8092"/>
<path d="M41.929 27.8589V26.1295H46.3605V27.8635L41.929 27.8589Z" fill="#0F8092"/>
<path d="M41.9266 25.0779V23.3438H45.9147V25.0732L41.9266 25.0779Z" fill="#0F8092"/>
<path d="M51.8204 27.8729H49.9075V21.373C50.1446 21.6459 50.3973 21.9047 50.6643 22.1483C51.5929 22.8958 51.825 23.2487 51.825 24.934C51.832 24.9479 51.8227 27.8729 51.8204 27.8729Z" fill="#0F8092"/>
<path d="M63.55 25.7417L60.1724 20.5859C60.9571 20.5859 61.6767 20.5859 62.3963 20.5859C62.4752 20.5859 62.5681 20.7067 62.6284 20.7902C62.9836 21.3311 64.2093 23.1929 64.5343 23.7477C64.5686 23.8165 64.5865 23.8924 64.5865 23.9694C64.5865 24.0463 64.5686 24.1222 64.5343 24.191C64.2348 24.711 63.8982 25.2008 63.55 25.7417Z" fill="#0F8092"/>
<path d="M58.0763 21.5936C58.0763 23.5435 58.0763 25.4935 58.0763 27.4434V27.8566H56.145V23.8244L53.9838 26.1086L51.8504 23.8476C51.277 23.2417 50.7036 22.6359 50.1395 22.0253C49.5754 21.4148 49.8262 20.6627 50.6386 20.4445C50.6386 20.4445 50.9311 20.3075 51.7483 21.0527C52.505 21.8094 53.2247 22.5987 53.9838 23.4042C54.708 22.6358 55.416 21.8884 56.1171 21.1362C56.3957 20.8368 56.6673 20.535 57.113 20.4398C57.1323 20.4375 57.1517 20.4375 57.171 20.4398H57.4264C57.5081 20.4361 57.5897 20.4485 57.6667 20.4763C57.7436 20.5042 57.8142 20.547 57.8746 20.6022C57.935 20.6574 57.9839 20.7239 58.0185 20.798C58.0531 20.8722 58.0728 20.9524 58.0763 21.0341V21.5936Z" fill="#30B4C0"/>
<path d="M67.7657 20.5767C67.8428 20.5709 67.9201 20.5862 67.9892 20.6209C68.0584 20.6556 68.1168 20.7084 68.1583 20.7737C68.1998 20.839 68.2227 20.9143 68.2247 20.9917C68.2267 21.069 68.2077 21.1454 68.1696 21.2128C67.313 22.5453 66.4355 23.8684 65.5882 25.2056C65.4569 25.4233 65.3834 25.671 65.3747 25.9252C65.3445 26.5566 65.3747 27.188 65.3747 27.8473H63.427C63.427 27.2553 63.427 26.6657 63.427 26.0761C63.427 25.8439 63.3551 25.6118 63.3458 25.3982C63.3434 25.2855 63.3749 25.1747 63.4363 25.0802C64.337 23.6502 65.2431 22.2241 66.1546 20.8019C66.1861 20.7453 66.2286 20.6955 66.2796 20.6556C66.3307 20.6157 66.3892 20.5865 66.4518 20.5698C66.865 20.5744 67.2944 20.5744 67.7657 20.5767Z" fill="#30B4C0"/>
<path d="M4.81939 20.8459C5.6458 22.6172 7.32881 26.1294 8.14129 27.8681C7.44488 27.8681 6.81114 27.8681 6.17972 27.8681C6.11904 27.8574 6.06159 27.833 6.01172 27.7968C5.96185 27.7606 5.92086 27.7136 5.89187 27.6592C5.49027 26.8258 4.20887 24.1864 3.83745 23.3438C3.78636 23.2188 3.78636 23.0787 3.83745 22.9538C4.13923 22.2829 4.4619 21.6143 4.81939 20.8459Z" fill="#036E9E"/>
<path d="M4.81939 20.8459C5.6458 22.6172 7.32881 26.1294 8.14129 27.8681C7.44488 27.8681 6.81114 27.8681 6.17972 27.8681C6.11904 27.8574 6.06159 27.833 6.01172 27.7968C5.96185 27.7606 5.92086 27.7136 5.89187 27.6592C5.49027 26.8258 4.20887 24.1864 3.83745 23.3438C3.78636 23.2188 3.78636 23.0787 3.83745 22.9538C4.13923 22.2829 4.4619 21.6143 4.81939 20.8459Z" fill="url(#paint1_linear_1776_246)"/>
<path d="M0.0302124 27.8682C0.682521 26.4754 1.30929 25.1174 1.93839 23.7686C2.35159 22.8819 2.7648 21.9928 3.18497 21.106C3.23151 20.9837 3.30243 20.8721 3.39343 20.778C3.48443 20.6839 3.5936 20.6093 3.71431 20.5587C3.83502 20.5082 3.96476 20.4826 4.09564 20.4837C4.22652 20.4848 4.35581 20.5125 4.47566 20.5651C4.713 20.675 4.9001 20.8704 4.99953 21.1123C5.09896 21.3542 5.10337 21.6247 5.0119 21.8697C4.12281 23.7617 3.22908 25.6536 2.35392 27.5502C2.32159 27.6578 2.25131 27.7501 2.15611 27.8099C2.06091 27.8696 1.94726 27.8928 1.83625 27.8752C1.26287 27.8519 0.682521 27.8682 0.0302124 27.8682Z" fill="#30B4C0"/>
<path d="M42.0472 27.8845H41.2463C40.529 27.8845 40.1391 27.5502 40.1344 26.8886C40.1205 25.1197 40.1228 23.3532 40.1344 21.5843C40.1344 20.9157 40.5082 20.593 41.2324 20.5768C41.4971 20.5768 41.7617 20.5768 42.0496 20.5768L42.0472 27.8845Z" fill="#30B4C0"/>
<path d="M32.7616 27.8752C34.498 27.9704 35.8792 27.4342 36.7451 26.0553C37.5785 24.7321 37.5088 23.381 36.5548 22.1228C35.661 20.9459 34.5096 20.593 32.8243 20.593H31.7448C31.3641 20.593 31.0136 20.5791 30.6654 20.593C30.1733 20.6186 29.8413 20.9111 29.839 21.3614C29.8266 23.2696 29.8266 25.1793 29.839 27.0906C29.8481 27.3094 29.9431 27.5158 30.1035 27.6649C30.2639 27.814 30.4767 27.8937 30.6956 27.8868C31.0322 27.9031 31.269 27.8868 31.6404 27.8868L32.7616 27.8752ZM31.7448 26.1086C31.7448 24.811 31.7448 23.5783 31.7448 22.283L32.75 22.2993C33.1795 22.3573 33.6252 22.341 33.9966 22.485C34.3744 22.6289 34.7081 22.8689 34.9646 23.1814C35.2027 23.4943 35.3264 23.8794 35.3151 24.2724C35.2682 24.6962 35.1033 25.0983 34.8393 25.4331C34.3471 26.0715 33.5602 26.162 32.75 26.1179L31.7448 26.1086Z" fill="#0F8092"/>
<path d="M31.738 27.8821C31.3665 27.8821 31.0276 27.896 30.6887 27.8821C30.47 27.8884 30.2575 27.8084 30.0973 27.6594C29.937 27.5105 29.8418 27.3044 29.8321 27.0858C29.8228 25.1746 29.8228 23.2648 29.8321 21.3567C29.8321 20.9063 30.1664 20.6138 30.6562 20.5883C31.0067 20.572 31.3526 20.5883 31.7356 20.5883L31.738 27.8821Z" fill="#30B4C0"/>
<path d="M9.9007 24.2724V24.3235C9.92856 27.1347 12.4171 28.0145 13.9863 28.0145C15.5556 28.0145 17.1457 26.7215 17.1457 26.7215L15.7297 25.6258C14.7501 26.2735 13.9863 26.2224 13.9863 26.2224C12.0898 26.2224 11.8832 24.688 11.8646 24.2283C11.8832 23.7641 12.0967 22.2319 13.9863 22.2319C14.2387 22.2308 14.4896 22.2707 14.7292 22.3503C13.9213 22.0694 12.6051 21.7932 10.7039 21.9278C10.1708 22.5917 9.88672 23.4211 9.9007 24.2724Z" fill="#0F8092"/>
<path d="M25.2567 25.8902H21.2964V27.0068H25.2567V25.8902Z" fill="#0F8092"/>
<path d="M24.0796 20.8157C24.906 22.5846 26.589 26.0969 27.4015 27.8356C26.705 27.8356 26.0713 27.8356 25.4376 27.8356C25.3776 27.8245 25.3209 27.8002 25.2715 27.7645C25.2221 27.7287 25.1813 27.6825 25.152 27.629C24.7504 26.8072 23.4714 24.1632 23.0976 23.3321C23.0466 23.2063 23.0466 23.0656 23.0976 22.9398C23.3994 22.2503 23.7221 21.5818 24.0796 20.8157Z" fill="#0F8092"/>
<path d="M19.2978 27.8356C19.9501 26.4428 20.5769 25.0848 21.206 23.7361C21.6192 22.8493 22.0324 21.9602 22.4525 21.0758C22.4991 20.9535 22.57 20.8418 22.661 20.7477C22.7519 20.6536 22.861 20.5788 22.9817 20.5281C23.1023 20.4773 23.232 20.4515 23.3629 20.4523C23.4938 20.4531 23.6232 20.4804 23.7432 20.5326C23.9806 20.6424 24.1677 20.8379 24.2671 21.0798C24.3665 21.3217 24.371 21.5922 24.2795 21.8372C23.3904 23.7314 22.4967 25.621 21.6215 27.5176C21.5891 27.6257 21.5185 27.7184 21.4228 27.7782C21.3271 27.838 21.2129 27.8609 21.1015 27.8426C20.5235 27.8194 19.9431 27.8356 19.2978 27.8356Z" fill="#30B4C0"/>
<path d="M66.0501 13.2342L68.9472 18.5293L69.6088 13.9956L73.2998 9.92157L66.0501 13.2342Z" fill="#F9AC48"/>
<path d="M66.0501 13.2343L69.6088 13.9957L68.9472 18.5293L66.0501 13.2343Z" fill="#F89420"/>
<path d="M61.5491 11.9274L64.4462 13.2343L61.5491 7.94159V11.9274Z" fill="#0F8092"/>
<g style="mix-blend-mode:color-burn" opacity="0.6">
<path d="M73.3001 8.45675L71.118 3.86505L65.4074 12.0642L73.3001 8.45675Z" fill="#F9AC48"/>
</g>
<path d="M58.8098 0L65.4072 12.0642L73.2999 8.45679L71.1178 3.8651L65.4072 0.759092L58.8098 0Z" fill="#F9AC48"/>
<path d="M65.4074 0.758972V12.0641L71.118 3.86498L65.4074 0.758972Z" fill="#F99C2D"/>
<path d="M57.2059 0L52.0965 2.6487L49.9655 6.47433L52.2962 10.6992L57.0504 13.2342L60.7483 6.47433L57.2059 0Z" fill="#F9AC48"/>
<path d="M49.9655 6.4743H60.7483L52.2962 10.6992L49.9655 6.4743Z" fill="#F99C2D"/>
<path d="M52.2961 10.6992L60.7483 6.4743L57.0503 13.2342L52.2961 10.6992Z" fill="#F89420"/>
<path d="M73.3001 8.45675L71.118 3.86505L65.4074 12.0642L73.3001 8.45675Z" fill="#F89420"/>
<path d="M3.56796 37.04C3.70429 37.2261 3.77456 37.4524 3.7676 37.683C3.77418 37.8459 3.73903 38.0077 3.66549 38.1532C3.59196 38.2986 3.48247 38.4228 3.34743 38.5141C2.97757 38.7303 2.55163 38.8313 2.12406 38.8043H0V34.7186H2.00567C2.41276 34.6918 2.81818 34.7916 3.16636 35.0042C3.29364 35.0903 3.39716 35.2072 3.46735 35.3439C3.53754 35.4806 3.57214 35.6328 3.56796 35.7865C3.57182 35.9732 3.52261 36.1572 3.42604 36.317C3.32947 36.4769 3.18951 36.606 3.02244 36.6895C3.2356 36.7483 3.42585 36.8706 3.56796 37.04ZM0.944802 35.415V36.3831H1.88728C2.0734 36.3945 2.25884 36.3517 2.4212 36.26C2.48043 36.2202 2.52828 36.1657 2.56002 36.1018C2.59177 36.0379 2.60633 35.9668 2.60227 35.8956C2.60645 35.825 2.5919 35.7545 2.56011 35.6913C2.52831 35.6281 2.48039 35.5745 2.4212 35.5358C2.25855 35.445 2.07316 35.4031 1.88728 35.415H0.944802ZM2.61852 37.9686C2.68154 37.9274 2.73256 37.8702 2.7664 37.803C2.80023 37.7357 2.81569 37.6607 2.81119 37.5855C2.81119 37.2466 2.55816 37.0748 2.0521 37.0748H0.944802V38.0916H2.0521C2.24868 38.1041 2.44484 38.0615 2.61852 37.9686Z" fill="#30B4C0"/>
<path d="M7.85084 35.6473L6.42551 38.997C6.32391 39.3004 6.13691 39.568 5.88695 39.7677C5.66087 39.9243 5.39118 40.0055 5.11625 39.9999C4.95077 39.9998 4.7863 39.9739 4.62876 39.9233C4.48464 39.8811 4.35099 39.8091 4.23645 39.712L4.57073 39.0597C4.63858 39.1222 4.71725 39.1717 4.80287 39.206C4.88906 39.2413 4.98132 39.2594 5.07447 39.2593C5.18386 39.2643 5.29174 39.2324 5.38089 39.1688C5.47386 39.0861 5.5462 38.9827 5.59214 38.867L5.60374 38.8369L4.24806 35.6473H5.19286L6.07963 37.7899L6.97104 35.6473H7.85084Z" fill="#30B4C0"/>
<path d="M13.1554 38.8135L12.3639 37.6691H11.4887V38.8135H10.5392V34.7186H12.3174C12.6424 34.7113 12.9652 34.773 13.2645 34.8997C13.5214 35.0057 13.7394 35.1882 13.8889 35.4225C14.0384 35.6567 14.1122 35.9313 14.1002 36.2089C14.1115 36.485 14.037 36.7577 13.8869 36.9896C13.7368 37.2216 13.5186 37.4014 13.2622 37.5043L14.1908 38.8251L13.1554 38.8135ZM12.9233 35.6657C12.7349 35.5299 12.505 35.4642 12.2733 35.48H11.498V36.9123H12.2733C12.5054 36.9286 12.7358 36.862 12.9233 36.7243C12.9946 36.6558 13.0514 36.5736 13.0902 36.4827C13.129 36.3917 13.149 36.2939 13.149 36.195C13.149 36.0961 13.129 35.9983 13.0902 35.9073C13.0514 35.8164 12.9946 35.7342 12.9233 35.6657Z" fill="#30B4C0"/>
<path d="M18.2599 35.6473V38.8044H17.3917V38.4329C17.2727 38.569 17.1243 38.6762 16.9577 38.7463C16.704 38.8489 16.427 38.8799 16.1569 38.8361C15.8868 38.7924 15.6338 38.6754 15.4255 38.4979C15.2968 38.3546 15.1984 38.1868 15.1362 38.0045C15.074 37.8222 15.0492 37.6292 15.0634 37.4371V35.6473H15.978V37.2955C15.978 37.8046 16.1916 38.0592 16.6187 38.0592C16.7166 38.0627 16.8142 38.0454 16.905 38.0086C16.9958 37.9718 17.0778 37.9163 17.1457 37.8456C17.2909 37.6659 17.3622 37.4377 17.3453 37.2072V35.6473H18.2599Z" fill="#30B4C0"/>
<path d="M21.8047 35.9582C21.943 36.0947 22.0499 36.2597 22.1181 36.4417C22.1862 36.6237 22.214 36.8183 22.1993 37.0121V38.8135H21.3427V38.4328C21.1694 38.7253 20.8483 38.8715 20.3794 38.8715C20.1624 38.8775 19.9468 38.8355 19.748 38.7485C19.5821 38.677 19.4403 38.5594 19.3394 38.4096C19.2461 38.2617 19.1977 38.0899 19.2001 37.9151C19.1938 37.7807 19.2208 37.6468 19.2787 37.5253C19.3366 37.4038 19.4237 37.2985 19.5321 37.2187C19.8373 37.0266 20.1962 36.9378 20.5558 36.9657H21.2824C21.2886 36.8797 21.2756 36.7934 21.2442 36.7131C21.2129 36.6328 21.1641 36.5605 21.1013 36.5014C20.9458 36.3817 20.7515 36.3238 20.5558 36.3389C20.3871 36.3396 20.2196 36.3662 20.059 36.4178C19.9095 36.4646 19.7696 36.5377 19.6458 36.6337L19.3162 35.993C19.505 35.8643 19.7147 35.7692 19.936 35.7121C20.1779 35.645 20.4278 35.6114 20.6788 35.6123C21.0839 35.5848 21.4849 35.708 21.8047 35.9582ZM21.0247 38.1357C21.146 38.0629 21.2374 37.9493 21.2824 37.8153V37.5042H20.6556C20.2796 37.5042 20.0915 37.6273 20.0915 37.8757C20.0901 37.9297 20.1019 37.9833 20.1257 38.0318C20.1496 38.0803 20.1848 38.1223 20.2285 38.1542C20.3413 38.2279 20.4747 38.2637 20.6092 38.2564C20.7562 38.2551 20.9 38.2134 21.0247 38.1357Z" fill="#30B4C0"/>
<path d="M26.1851 35.9604C26.3136 36.1006 26.412 36.2656 26.4743 36.4452C26.5365 36.6249 26.5614 36.8154 26.5472 37.005V38.8133H25.6303V37.1466C25.6463 36.9465 25.5885 36.7475 25.4678 36.5871C25.4067 36.5235 25.3325 36.474 25.2503 36.4419C25.1681 36.4098 25.0799 36.396 24.9919 36.4014C24.89 36.3967 24.7883 36.4132 24.6931 36.45C24.598 36.4867 24.5116 36.5429 24.4394 36.615C24.2909 36.7931 24.2176 37.0221 24.2351 37.2534V38.8133H23.3066V35.647H24.1817V36.0161C24.3071 35.8805 24.462 35.7757 24.6344 35.7097C24.8225 35.6344 25.0238 35.5973 25.2264 35.6006C25.4022 35.5921 25.578 35.6196 25.7429 35.6815C25.9077 35.7434 26.0582 35.8383 26.1851 35.9604Z" fill="#30B4C0"/>
<path d="M30.9603 35.6471V38.2772C30.9603 38.856 30.8055 39.2863 30.496 39.5679C30.1262 39.873 29.6533 40.0242 29.1751 39.9904C28.8821 39.9919 28.5901 39.9544 28.3069 39.879C28.061 39.8176 27.8298 39.7079 27.6268 39.5563L28.0028 38.897C28.1519 39.0167 28.3231 39.1058 28.5066 39.1594C28.7038 39.2234 28.9098 39.2563 29.1171 39.2569C29.3683 39.2765 29.6174 39.1992 29.8135 39.041C29.8953 38.9552 29.9583 38.8533 29.9983 38.7418C30.0383 38.6302 30.0544 38.5115 30.0456 38.3933V38.2587C29.919 38.3952 29.7641 38.5023 29.5916 38.5725C29.4191 38.6427 29.2334 38.6742 29.0474 38.6649C28.7704 38.6683 28.4968 38.6029 28.2512 38.4745C28.0151 38.3518 27.8175 38.1663 27.6802 37.9383C27.5426 37.6946 27.4704 37.4196 27.4704 37.1397C27.4704 36.8599 27.5426 36.5849 27.6802 36.3412C27.8175 36.1132 28.0151 35.9277 28.2512 35.805C28.4968 35.6766 28.7704 35.6112 29.0474 35.6146C29.2447 35.6023 29.4421 35.6367 29.6236 35.715C29.805 35.7932 29.9656 35.9131 30.0921 36.065V35.6471H30.9603ZM29.8251 37.6853C29.9723 37.5363 30.0548 37.3353 30.0548 37.1258C30.0548 36.9164 29.9723 36.7154 29.8251 36.5664C29.6577 36.4256 29.4461 36.3484 29.2274 36.3484C29.0086 36.3484 28.797 36.4256 28.6296 36.5664C28.5553 36.6394 28.4964 36.7265 28.4561 36.8225C28.4158 36.9186 28.3951 37.0217 28.3951 37.1258C28.3951 37.23 28.4158 37.3331 28.4561 37.4291C28.4964 37.5252 28.5553 37.6123 28.6296 37.6853C28.797 37.8261 29.0086 37.9033 29.2274 37.9033C29.4461 37.9033 29.6577 37.8261 29.8251 37.6853Z" fill="#30B4C0"/>
<path d="M35.3616 35.6472V38.2773C35.3616 38.8561 35.2107 39.2863 34.9089 39.568C34.5391 39.873 34.0662 40.0243 33.588 39.9905C33.295 39.992 33.003 39.9545 32.7198 39.879C32.474 39.8177 32.2428 39.708 32.0397 39.5564L32.4041 38.8971C32.5532 39.0168 32.7244 39.1059 32.9079 39.1594C33.1051 39.2234 33.3111 39.2563 33.5184 39.2569C33.7696 39.2765 34.0188 39.1993 34.2148 39.041C34.2966 38.9553 34.3596 38.8534 34.3996 38.7418C34.4396 38.6303 34.4557 38.5116 34.4469 38.3934V38.2587C34.3212 38.3938 34.1677 38.5 33.997 38.5701C33.8263 38.6402 33.6424 38.6726 33.458 38.665C33.181 38.6684 32.9074 38.603 32.6618 38.4746C32.4257 38.3519 32.2281 38.1663 32.0907 37.9384C31.9508 37.6955 31.8771 37.4201 31.8771 37.1398C31.8771 36.8595 31.9508 36.5841 32.0907 36.3413C32.2281 36.1133 32.4257 35.9277 32.6618 35.805C32.9074 35.6766 33.181 35.6112 33.458 35.6147C33.655 35.6022 33.8521 35.6365 34.0332 35.7148C34.2144 35.7931 34.3744 35.9131 34.5003 36.065V35.6472H35.3616ZM34.2241 37.6853C34.2978 37.612 34.3563 37.5248 34.3962 37.4288C34.4361 37.3328 34.4566 37.2299 34.4566 37.1259C34.4566 37.0219 34.4361 36.919 34.3962 36.823C34.3563 36.727 34.2978 36.6398 34.2241 36.5664C34.0619 36.4194 33.8485 36.3419 33.6298 36.3506C33.4097 36.3419 33.1949 36.4194 33.0309 36.5664C32.9567 36.6395 32.8977 36.7265 32.8574 36.8226C32.8172 36.9186 32.7964 37.0217 32.7964 37.1259C32.7964 37.23 32.8172 37.3331 32.8574 37.4292C32.8977 37.5252 32.9567 37.6123 33.0309 37.6853C33.1949 37.8324 33.4097 37.9099 33.6298 37.9012C33.8473 37.9124 34.0605 37.8383 34.2241 37.6946V37.6853Z" fill="#30B4C0"/>
<path d="M39.6863 35.6473V38.8044H38.8181V38.4329C38.6978 38.5686 38.5487 38.6756 38.3817 38.7463C38.2096 38.8209 38.0237 38.8581 37.8362 38.8554C37.6565 38.865 37.4768 38.8383 37.3077 38.7769C37.1385 38.7154 36.9835 38.6206 36.8519 38.4979C36.7223 38.3551 36.6232 38.1874 36.5605 38.005C36.4979 37.8226 36.473 37.6294 36.4874 37.4371V35.6473H37.4044V37.2955C37.4044 37.8046 37.618 38.0592 38.0451 38.0592C38.143 38.0627 38.2406 38.0454 38.3314 38.0086C38.4222 37.9718 38.5042 37.9163 38.572 37.8456C38.7181 37.6663 38.7896 37.4378 38.7717 37.2072V35.6473H39.6863Z" fill="#30B4C0"/>
<path d="M42.147 35.7261C42.3517 35.6455 42.5702 35.6061 42.7901 35.61V36.455C42.6879 36.455 42.6206 36.455 42.5835 36.455C42.4713 36.4481 42.359 36.4642 42.2532 36.5021C42.1475 36.54 42.0505 36.599 41.9683 36.6755C41.8871 36.764 41.8246 36.8681 41.7847 36.9814C41.7448 37.0947 41.7283 37.2149 41.7362 37.3348V38.8251H40.8215V35.6472H41.6944V36.065C41.8104 35.9117 41.9673 35.7942 42.147 35.7261Z" fill="#30B4C0"/>
<path d="M46.8338 35.6473V38.8044H45.9656V38.4329C45.8453 38.5686 45.6962 38.6756 45.5292 38.7463C45.3572 38.8209 45.1712 38.8581 44.9837 38.8554C44.804 38.865 44.6243 38.8383 44.4552 38.7769C44.2861 38.7154 44.1311 38.6206 43.9994 38.4979C43.8699 38.3551 43.7707 38.1874 43.7081 38.005C43.6454 37.8226 43.6205 37.6294 43.635 37.4371V35.6473H44.5496V37.2955C44.5496 37.8046 44.7632 38.0592 45.1903 38.0592C45.2882 38.0627 45.3858 38.0454 45.4766 38.0086C45.5674 37.9718 45.6494 37.9163 45.7172 37.8456C45.8633 37.6663 45.9347 37.4378 45.9169 37.2072V35.6473H46.8338Z" fill="#30B4C0"/>
<defs>
<linearGradient id="paint0_linear_1776_246" x1="0.03479" y1="9.80073" x2="1.99636" y2="9.80073" gradientUnits="userSpaceOnUse">
<stop stop-color="#F9AC48"/>
<stop offset="1" stop-color="#F8962F"/>
</linearGradient>
<linearGradient id="paint1_linear_1776_246" x1="530.199" y1="1139.97" x2="611.441" y2="1139.97" gradientUnits="userSpaceOnUse">
<stop stop-color="#F9AC48"/>
<stop offset="1" stop-color="#F8962F"/>
</linearGradient>
</defs>
</svg>
